<?xml version="1.0" standalone="no"?>
<!DOCTYPE svg PUBLIC "-//W3C//DTD SVG 20010904//EN"
 "http://www.w3.org/TR/2001/REC-SVG-20010904/DTD/svg10.dtd">
<svg version="1.0" xmlns="http://www.w3.org/2000/svg"
 width="6000.000000pt" height="3008.000000pt" viewBox="0 0 6000.000000 3008.000000"
 preserveAspectRatio="xMidYMid meet">

<g transform="translate(0.000000,3008.000000) scale(0.100000,-0.100000)"
fill="#000000" stroke="none">
<path d="M25276 28379 c-8 -19 -24 -56 -36 -84 -46 -105 -180 -477 -235 -650
-215 -682 -358 -1382 -420 -2055 -46 -500 -48 -1062 -5 -1525 149 -1606 796
-2982 1930 -4104 668 -660 1289 -1064 2180 -1418 539 -215 1221 -415 1960
-578 140 -31 261 -58 269 -61 12 -4 13 21 8 163 -36 895 -273 1902 -643 2730
-324 725 -731 1334 -1259 1881 l-80 84 50 -20 c331 -130 728 -364 1070 -630
278 -216 646 -570 856 -822 894 -1075 1419 -2421 1586 -4069 l8 -74 54 73
c153 205 367 439 661 722 1001 964 2243 1602 3548 1823 83 14 156 25 163 25 8
0 -44 -27 -116 -59 -866 -393 -1711 -1130 -2292 -2001 -142 -212 -279 -443
-366 -616 l-36 -72 37 -5 c238 -38 705 -61 1057 -53 2049 46 3767 804 4900
2161 546 653 989 1520 1234 2415 95 346 172 741 197 1009 6 69 6 73 -12 67
-10 -3 -85 -26 -165 -51 -913 -282 -1837 -480 -2539 -545 -201 -18 -516 -23
-715 -11 -464 28 -1022 -40 -1545 -190 -317 -90 -562 -185 -875 -339 -523
-257 -955 -566 -1393 -995 l-134 -130 34 70 c201 413 407 782 651 1165 141
222 400 597 511 740 27 36 88 115 135 175 141 183 435 529 610 720 809 880
1751 1682 2936 2500 180 124 262 184 195 143 -14 -8 -101 -59 -195 -113 -1093
-630 -1978 -1243 -2770 -1919 -486 -416 -1078 -1008 -1439 -1442 -55 -65 -132
-157 -171 -204 -93 -111 -392 -506 -484 -639 -40 -59 -71 -96 -71 -85 0 10 20
188 45 394 43 357 67 571 80 725 74 882 88 1212 74 1708 -20 689 -114 1407
-299 2277 -69 326 -332 1471 -337 1466 -2 -2 14 -129 37 -282 107 -732 132
-911 169 -1204 110 -866 148 -1582 116 -2185 -26 -494 -61 -790 -170 -1445
-46 -278 -91 -539 -99 -580 -81 -411 -192 -929 -273 -1274 -110 -470 -97 -452
-133 -191 -185 1354 -755 2553 -1631 3435 -295 296 -565 517 -918 752 -255
169 -384 243 -1306 738 -1020 549 -908 488 -1385 745 -1752 944 -2181 1219
-2647 1694 l-152 155 -15 -35z"/>
<path d="M23065 19383 c-717 -23 -2146 -229 -3070 -444 -676 -157 -1416 -455
-2033 -818 l-174 -102 -176 25 c-550 79 -992 109 -1607 109 -740 0 -1423 -49
-2125 -154 -2400 -358 -4580 -1172 -5940 -2218 -347 -266 -757 -648 -1024
-951 -740 -840 -1105 -1718 -1072 -2582 9 -247 39 -438 101 -653 129 -445 460
-967 812 -1280 177 -158 359 -281 603 -408 331 -172 579 -240 870 -240 224 0
431 44 569 120 126 70 278 240 389 434 64 113 125 250 115 258 -4 4 -33 15
-63 26 -345 116 -578 406 -672 836 -30 140 -32 461 -4 644 59 387 212 827 422
1215 444 822 1275 1649 2222 2213 1073 639 2793 1230 4282 1471 321 53 911
124 940 114 6 -2 -61 -68 -147 -148 -165 -151 -687 -668 -808 -799 -226 -245
-285 -311 -407 -451 -549 -634 -1069 -1336 -1817 -2455 -137 -203 -319 -480
-405 -615 -87 -135 -168 -261 -181 -280 -418 -635 -1691 -2805 -2445 -4170
-330 -596 -826 -1443 -1065 -1815 -17 -27 -96 -151 -175 -275 -772 -1210
-1398 -2002 -2099 -2657 -454 -425 -884 -677 -1351 -792 -202 -49 -322 -63
-545 -63 -398 -1 -723 65 -998 203 -184 92 -290 171 -437 326 -286 301 -474
696 -547 1153 -26 165 -26 648 1 835 41 290 114 573 226 880 65 177 88 229
205 460 182 361 367 628 656 950 144 160 203 218 196 190 -31 -109 -38 -405
-12 -529 73 -350 265 -544 597 -602 72 -13 131 -15 263 -11 398 13 723 115
1081 339 393 248 703 592 914 1018 139 280 199 510 201 769 1 211 -39 362
-135 510 -186 288 -470 411 -946 411 -739 -1 -1443 -221 -2065 -648 -598 -410
-1084 -910 -1468 -1510 -444 -694 -725 -1461 -824 -2247 -25 -197 -24 -695 0
-880 70 -522 216 -933 460 -1300 220 -330 583 -676 909 -868 554 -325 1225
-477 2118 -479 587 -1 1071 81 1605 273 738 266 1590 809 2335 1489 222 203
637 622 840 850 47 52 87 97 90 100 15 15 250 292 331 390 416 505 1087 1429
1643 2262 94 142 174 258 179 258 4 0 40 -24 80 -53 762 -561 1654 -901 2651
-1012 348 -39 837 -39 1226 0 995 99 1962 441 2765 978 1070 716 1938 1722
2541 2946 401 813 610 1528 691 2356 24 252 24 847 0 1100 -79 818 -257 1419
-625 2105 -286 535 -702 1022 -1192 1397 -178 136 -440 308 -630 413 -99 55
-415 215 -439 222 -8 2 18 27 60 59 407 304 1080 721 1444 894 293 140 1043
441 1940 780 171 64 317 121 325 126 10 5 -2 8 -35 7 -27 -1 -90 -3 -140 -5z
m-4274 -2609 c244 -77 551 -211 764 -334 376 -217 668 -476 930 -825 332 -442
556 -1005 621 -1560 20 -170 14 -567 -10 -740 -105 -737 -346 -1363 -771
-2000 -282 -422 -531 -721 -906 -1090 -264 -259 -384 -366 -653 -580 -910
-725 -1950 -1240 -3056 -1514 -548 -135 -973 -188 -1440 -178 -278 6 -443 22
-676 68 -223 43 -521 128 -517 146 1 5 93 162 205 349 112 186 230 384 263
439 32 55 93 159 135 230 210 354 509 873 960 1670 462 817 1111 1917 1480
2510 800 1284 1432 2181 2033 2885 168 196 503 560 516 560 4 0 59 -16 122
-36z"/>
<path d="M45565 16344 c-543 -407 -1140 -779 -2021 -1260 -408 -222 -798 -415
-1309 -647 -226 -102 -729 -296 -1020 -393 -250 -83 -373 -117 -635 -178 -179
-41 -377 -84 -440 -95 -63 -11 -167 -29 -230 -40 -63 -11 -155 -27 -205 -36
-205 -35 -753 -101 -1125 -134 -892 -79 -2100 22 -2860 239 -367 106 -662 212
-1075 388 -215 92 -290 126 -930 419 -817 375 -1307 547 -1941 682 -630 134
-1293 167 -1939 95 -1118 -124 -2164 -488 -3290 -1147 -750 -438 -1647 -1144
-2335 -1838 -627 -633 -929 -985 -1251 -1464 -284 -421 -536 -877 -732 -1325
-47 -107 -135 -296 -195 -420 -383 -785 -532 -1317 -532 -1900 0 -533 145
-994 429 -1365 207 -272 546 -517 889 -647 192 -72 368 -113 632 -150 127 -17
775 -18 965 0 655 60 1173 180 1672 388 410 171 685 346 1036 661 285 256 614
668 787 986 23 42 43 77 44 77 2 0 -17 -54 -41 -120 -94 -261 -149 -502 -162
-717 -44 -710 255 -1122 913 -1259 151 -31 438 -43 621 -25 571 56 1209 347
1728 789 48 41 89 73 91 71 2 -2 18 -40 36 -84 113 -284 337 -527 604 -655
179 -85 356 -120 647 -127 824 -21 1671 170 2284 514 317 178 548 354 805 612
465 469 778 994 1026 1726 131 383 181 634 191 946 7 211 -5 358 -42 523 -141
624 -529 1035 -1140 1209 -291 82 -590 95 -965 42 l-45 -7 35 28 c68 53 185
180 234 253 135 203 261 454 305 611 58 205 66 261 65 460 0 160 -3 196 -22
265 -93 333 -309 486 -686 486 -455 0 -873 -201 -1190 -571 -232 -271 -435
-650 -519 -969 -28 -109 -30 -127 -31 -311 -1 -251 26 -389 107 -543 37 -71
140 -184 204 -225 123 -78 286 -95 463 -47 286 77 462 106 651 106 269 0 446
-65 585 -215 269 -290 249 -864 -61 -1726 -251 -697 -525 -1194 -921 -1665
-369 -441 -797 -698 -1220 -732 -385 -32 -611 108 -700 432 -20 72 -32 355
-16 355 6 0 55 -8 109 -17 85 -14 115 -15 231 -4 208 18 360 60 537 148 381
189 691 534 926 1028 216 454 247 885 87 1188 -49 93 -156 196 -248 240 -300
141 -669 81 -1041 -169 -233 -156 -508 -436 -706 -718 -185 -262 -419 -699
-507 -946 -44 -124 -102 -345 -128 -490 l-13 -75 -68 -51 c-149 -112 -365
-220 -534 -266 -63 -17 -107 -22 -228 -22 -139 -1 -154 1 -210 25 -135 57
-193 118 -216 227 -24 116 13 227 299 897 93 220 200 472 237 560 37 88 156
369 265 625 267 626 342 805 477 1140 63 157 186 457 274 667 152 365 239 586
239 604 0 5 -344 10 -765 11 l-766 3 44 61 c194 266 376 674 444 994 26 125
24 356 -6 469 -69 272 -228 429 -495 488 -96 21 -323 21 -443 -1 -473 -83
-878 -391 -1176 -891 -80 -134 -211 -425 -273 -610 -145 -422 -83 -819 157
-1021 53 -45 161 -97 249 -121 92 -25 369 -25 495 0 99 20 261 70 315 97 87
43 107 100 -332 -952 l-409 -983 -131 -160 c-490 -602 -1199 -1427 -1388
-1615 -78 -78 -245 -213 -378 -306 -390 -271 -901 -497 -1327 -584 -326 -67
-669 -70 -950 -9 -269 59 -468 164 -653 343 -186 180 -304 406 -347 665 -33
193 -11 492 51 708 l15 52 712 4 c758 4 787 6 1032 58 535 114 1016 379 1415
779 176 177 283 305 404 488 263 397 422 846 444 1257 21 369 -51 671 -223
940 -45 70 -169 218 -226 270 -197 180 -471 291 -808 326 -109 11 -496 7 -646
-7 l-60 -5 125 122 c109 106 268 255 395 370 201 180 646 535 860 684 637 446
1261 779 1875 1000 924 333 1833 445 2686 331 637 -86 1161 -237 2034 -586
1003 -402 1461 -559 1965 -674 314 -73 325 -74 630 -115 594 -80 1226 -101
1895 -61 383 22 342 18 730 76 692 104 1382 250 1910 404 391 114 361 104 600
198 593 232 1151 501 1800 870 740 420 1818 1131 2255 1488 72 58 172 140 224
182 179 145 192 163 36 46z m-19690 -5064 c19 -6 48 -28 66 -48 117 -133 115
-387 -6 -788 -87 -284 -201 -547 -411 -944 -329 -624 -612 -875 -1047 -930
-74 -9 -747 -15 -747 -6 0 9 114 274 174 406 170 369 430 829 724 1280 299
458 626 820 867 959 130 75 281 104 380 71z"/>
<path d="M50460 14760 c-99 -9 -185 -23 -415 -69 -55 -11 -131 -26 -170 -33
l-69 -13 -173 -369 c-95 -203 -173 -370 -173 -371 0 -1 75 -5 168 -8 238 -8
347 -41 441 -135 82 -82 118 -192 108 -326 -9 -117 -31 -186 -170 -521 -69
-165 -217 -525 -331 -800 -113 -275 -213 -515 -221 -533 l-15 -33 -48 58
c-194 232 -446 368 -766 412 -97 14 -376 14 -521 1 -704 -65 -1378 -338 -2020
-820 -728 -546 -1353 -1402 -1860 -2545 -262 -591 -395 -1086 -421 -1570 -5
-96 -10 -123 -24 -135 -152 -131 -315 -240 -472 -315 -193 -92 -321 -125 -481
-125 -248 0 -417 127 -417 312 0 107 73 309 330 918 58 136 276 663 437 1055
63 154 127 309 143 345 15 36 88 209 161 385 73 176 151 365 174 420 24 55 83
197 133 315 50 118 111 265 137 325 216 507 506 1221 520 1278 l7 27 -966 0
-966 0 -15 -24 c-9 -13 -31 -71 -50 -128 -18 -56 -42 -122 -52 -146 l-18 -43
-59 71 c-127 152 -300 271 -491 337 -140 48 -240 64 -438 70 -799 24 -1607
-257 -2373 -823 -225 -166 -536 -458 -725 -679 -358 -418 -681 -923 -959
-1498 -328 -678 -494 -1167 -565 -1657 -27 -194 -40 -491 -27 -666 38 -525
189 -901 477 -1186 264 -261 604 -392 1055 -405 203 -6 327 4 505 42 450 95
986 374 1503 782 58 47 94 69 97 61 2 -7 13 -49 25 -93 76 -284 268 -516 535
-645 214 -104 450 -150 764 -150 388 0 779 100 1186 303 355 177 629 369 906
635 54 51 99 89 102 85 2 -4 21 -51 42 -103 69 -173 150 -306 270 -443 209
-238 474 -381 830 -448 161 -30 448 -37 623 -15 422 54 873 237 1342 544 120
78 310 216 393 285 26 22 49 38 51 36 2 -2 14 -40 25 -84 64 -233 175 -408
341 -538 413 -321 1219 -345 1905 -57 458 193 786 408 1166 768 l66 62 28 -72
c92 -238 206 -412 379 -575 287 -272 673 -396 1175 -380 280 9 502 59 796 179
298 122 648 330 973 577 212 161 192 148 192 121 0 -33 64 -219 98 -287 171
-335 495 -528 982 -584 147 -16 462 -6 610 20 546 97 1109 372 1569 767 315
271 674 705 814 984 l62 124 -1 101 c-4 243 -102 411 -265 450 -24 6 -29 0
-89 -108 -161 -292 -352 -504 -614 -679 -395 -264 -743 -336 -989 -205 -77 40
-120 92 -142 169 -35 127 -4 230 263 868 89 213 207 497 605 1460 201 484 377
906 670 1600 349 829 498 1203 484 1216 -2 2 -436 4 -963 4 l-959 0 -17 -23
c-9 -12 -27 -53 -39 -92 -12 -38 -35 -106 -51 -149 l-31 -79 -36 44 c-183 225
-404 356 -699 416 -121 25 -551 25 -732 0 -612 -85 -1155 -299 -1718 -678
-585 -394 -1086 -945 -1520 -1669 -233 -390 -486 -913 -652 -1345 -163 -426
-260 -848 -276 -1205 l-6 -135 -64 -62 c-78 -76 -283 -213 -419 -282 -337
-168 -647 -180 -809 -31 -117 108 -116 287 3 575 27 66 120 291 206 500 87
209 172 416 190 460 57 139 165 400 450 1090 153 369 297 717 320 775 24 58
98 238 165 400 67 162 148 358 180 435 31 77 148 361 259 630 112 270 266 643
343 830 240 580 311 790 372 1095 69 343 52 649 -46 844 -142 284 -403 442
-848 511 -124 20 -541 28 -700 15z m-8696 -3675 c96 -23 183 -71 253 -141 34
-35 63 -70 63 -78 0 -8 -58 -155 -129 -328 -71 -172 -355 -862 -631 -1533
-276 -671 -526 -1278 -555 -1350 -30 -71 -79 -191 -110 -265 -90 -214 -114
-277 -151 -400 -33 -112 -36 -117 -92 -168 -174 -163 -501 -379 -720 -476
-437 -193 -824 -180 -985 34 -230 304 -158 901 215 1779 75 177 335 702 492
993 551 1028 1021 1584 1538 1822 254 116 597 163 812 111z m7002 10 c125 -22
231 -75 323 -162 l71 -68 -308 -755 c-359 -880 -404 -986 -601 -1449 -150
-350 -310 -725 -441 -1036 -112 -268 -250 -613 -277 -697 -25 -77 -26 -79
-111 -146 -497 -394 -879 -572 -1227 -572 -236 0 -386 84 -471 264 -54 113
-65 166 -71 331 -9 254 37 503 162 880 163 493 385 978 723 1579 463 826 853
1319 1247 1579 308 203 693 302 981 252z m7060 0 c124 -22 222 -71 302 -151
34 -34 62 -70 62 -79 0 -10 -73 -193 -161 -409 -154 -372 -391 -949 -484
-1176 -124 -304 -757 -1839 -857 -2079 -21 -52 -54 -149 -74 -215 -19 -66 -36
-120 -37 -121 -1 0 -33 -28 -72 -61 -185 -160 -441 -331 -639 -429 -342 -167
-693 -212 -902 -114 -109 52 -202 172 -244 319 -28 96 -38 326 -20 467 37 305
151 685 330 1103 113 265 471 969 663 1305 396 693 757 1133 1145 1394 292
197 694 297 988 246z"/>
<path d="M41725 4435 c-517 -91 -877 -417 -874 -790 1 -134 54 -225 173 -300
98 -61 199 -95 423 -145 204 -45 228 -52 270 -74 71 -36 92 -109 54 -184 -50
-98 -167 -148 -372 -159 -184 -10 -355 25 -512 103 -70 35 -159 96 -191 133
-12 13 -31 21 -50 21 l-31 0 -73 -233 c-40 -127 -73 -235 -72 -239 0 -9 141
-63 242 -92 148 -43 276 -58 483 -58 145 0 217 5 305 21 449 79 779 333 865
666 21 84 20 219 -4 271 -43 94 -142 171 -289 224 -48 17 -181 53 -297 80
-241 55 -285 71 -320 112 -60 71 0 185 130 244 234 106 619 50 829 -121 38
-31 65 -45 85 -45 l30 0 71 219 c38 120 70 223 70 228 0 15 -198 78 -325 104
-141 28 -493 36 -620 14z"/>
<path d="M44710 4443 c-263 -42 -446 -111 -614 -231 -182 -131 -290 -303 -315
-501 -34 -271 124 -412 570 -506 186 -39 239 -54 292 -83 79 -43 95 -97 53
-181 -58 -113 -241 -171 -491 -158 -220 13 -404 84 -566 219 -27 23 -56 38
-72 38 -25 0 -28 -7 -76 -157 -94 -298 -100 -317 -97 -320 1 -1 49 -20 107
-42 412 -155 958 -138 1311 40 309 156 512 444 496 704 -14 219 -165 319 -648
425 -246 54 -300 83 -300 161 0 131 160 226 400 236 137 6 264 -13 376 -56 79
-31 208 -107 238 -140 12 -13 32 -21 51 -21 l31 0 49 153 c26 83 58 185 71
225 l23 74 -44 19 c-66 29 -258 77 -376 94 -95 13 -403 19 -469 8z"/>
<path d="M32452 3812 c-107 -334 -244 -767 -306 -962 -62 -195 -116 -365 -120
-378 l-7 -22 262 2 262 3 54 170 c30 94 92 287 137 430 l82 260 382 3 c265 1
382 -1 382 -8 0 -9 -250 -800 -267 -847 -4 -10 52 -13 261 -13 206 0 266 3
266 13 0 10 597 1893 616 1942 6 14 -25 15 -257 13 l-263 -3 -77 -240 c-43
-132 -94 -293 -114 -357 l-37 -118 -385 0 c-304 0 -384 3 -380 13 5 13 172
537 205 645 l20 62 -262 0 -261 0 -193 -608z"/>
<path d="M34938 4308 c-54 -170 -206 -647 -407 -1279 -100 -311 -181 -569
-181 -572 0 -4 328 -7 730 -7 l729 0 57 178 c31 97 59 183 61 190 4 9 -93 12
-467 12 -373 0 -471 3 -468 13 3 6 38 117 78 245 l74 232 437 0 438 0 57 178
c31 97 59 183 61 190 4 9 -86 12 -431 12 -240 0 -436 3 -436 8 0 4 23 80 52
170 l52 162 471 0 471 0 57 179 c31 98 57 183 57 190 0 8 -192 11 -728 11
l-729 0 -35 -112z"/>
<path d="M36845 4333 c-15 -49 -153 -482 -307 -963 -153 -481 -281 -885 -285
-897 l-5 -23 259 0 259 0 114 360 115 360 120 0 121 0 159 -360 160 -360 318
0 c174 0 317 2 317 4 0 2 -37 79 -81 172 -232 483 -320 667 -317 668 2 1 32
15 68 31 92 43 234 138 302 203 140 134 238 349 238 522 -1 159 -99 275 -280
330 -106 32 -258 40 -766 40 l-482 0 -27 -87z m752 -283 c127 -10 182 -31 213
-83 24 -39 25 -76 4 -148 -37 -127 -124 -216 -259 -264 -71 -25 -451 -36 -442
-12 3 9 40 125 83 259 42 134 79 246 81 251 6 10 184 9 320 -3z"/>
<path d="M39047 4413 c-4 -7 -236 -735 -548 -1714 -38 -119 -71 -224 -75 -233
-6 -15 35 -16 490 -16 275 0 540 5 594 10 291 32 527 146 695 340 56 63 130
208 152 295 50 199 -29 349 -220 413 -31 11 -57 22 -58 25 -1 3 34 24 78 46
113 59 200 132 261 222 77 113 97 174 98 290 1 89 -1 99 -29 144 -64 103 -190
160 -390 175 -143 11 -1042 13 -1048 3z m815 -381 c26 -11 54 -32 64 -46 38
-59 -9 -205 -87 -268 -68 -55 -135 -70 -338 -76 -155 -4 -183 -3 -179 9 3 8
33 100 67 206 33 105 67 194 74 197 6 3 89 4 183 2 144 -3 177 -7 216 -24z
m-140 -756 c26 -10 60 -32 74 -49 24 -28 26 -37 21 -89 -6 -71 -47 -161 -94
-210 -43 -44 -128 -84 -220 -103 -74 -16 -443 -21 -443 -7 0 5 7 28 14 53 8
24 43 131 76 237 l62 194 231 -4 c189 -4 241 -8 279 -22z"/>
<path d="M45756 3447 c-170 -534 -311 -978 -314 -984 -5 -16 771 -18 948 -3
400 35 690 172 960 453 196 206 322 461 360 732 49 344 -113 613 -430 713
-161 51 -302 62 -805 62 l-410 0 -309 -973z m1129 580 c258 -73 340 -284 235
-599 -103 -309 -298 -503 -583 -580 -95 -26 -464 -40 -455 -17 3 8 80 250 172
539 92 289 179 560 193 604 l26 79 181 -6 c110 -3 201 -11 231 -20z"/>
<path d="M48185 3828 c-103 -326 -244 -766 -311 -978 -68 -212 -124 -388 -124
-392 0 -5 107 -8 238 -8 l238 0 189 593 c103 325 199 627 213 670 14 43 26 76
28 74 3 -3 138 -427 380 -1194 l45 -143 252 0 253 0 309 973 c170 534 311 978
313 985 3 9 -48 12 -235 12 l-239 0 -154 -482 c-84 -266 -165 -519 -180 -563
-26 -77 -28 -79 -36 -50 -5 17 -89 270 -187 563 l-179 532 -312 0 -312 0 -189
-592z"/>
<path d="M51678 4414 c-3 -5 -143 -442 -312 -971 -168 -529 -309 -969 -313
-978 -5 -15 41 -16 558 -12 632 4 657 7 844 82 280 113 457 298 526 552 39
142 16 255 -68 334 -55 52 -99 74 -203 106 -8 2 21 23 68 48 196 105 310 238
358 418 44 167 -11 290 -161 361 -116 55 -144 58 -741 63 -303 3 -554 1 -556
-3z m795 -370 c16 -4 44 -22 64 -40 35 -33 36 -35 30 -94 -10 -114 -89 -211
-200 -246 -36 -11 -109 -17 -236 -21 -166 -5 -184 -4 -178 10 3 9 34 104 69
213 l63 197 180 -6 c99 -4 193 -9 208 -13z m-128 -764 c22 -7 55 -28 74 -48
32 -34 33 -39 28 -93 -6 -69 -46 -162 -90 -207 -37 -39 -110 -78 -182 -100
-59 -17 -485 -30 -485 -15 0 8 58 193 132 421 l20 64 232 -5 c145 -2 246 -9
271 -17z"/>
<path d="M53743 4258 c-28 -90 -166 -523 -306 -963 -140 -440 -258 -810 -262
-823 l-6 -22 262 2 262 3 8 25 c116 373 265 827 273 832 16 11 756 10 756 -1
0 -5 -58 -191 -129 -413 -70 -221 -131 -413 -135 -426 l-7 -22 262 2 263 3
307 965 c170 531 311 973 314 983 6 16 -11 17 -257 17 l-263 0 -83 -263 c-46
-144 -97 -306 -114 -359 l-31 -98 -384 0 c-304 0 -384 3 -380 13 2 6 53 165
112 352 59 187 110 343 112 348 2 4 -114 7 -259 7 l-263 0 -52 -162z"/>
<path d="M55981 3973 c-394 -1238 -481 -1512 -481 -1517 0 -10 819 -6 945 4
388 33 662 158 931 425 258 257 398 565 398 880 1 187 -57 329 -183 447 -121
115 -282 175 -528 197 -67 6 -305 11 -530 11 l-409 0 -143 -447z m976 49 c178
-57 263 -167 263 -343 0 -102 -21 -205 -66 -315 -109 -272 -280 -432 -541
-510 -77 -23 -112 -27 -280 -31 -106 -3 -193 -3 -193 1 0 3 67 216 149 473 82
258 168 529 191 603 24 74 45 139 48 144 3 5 86 6 186 3 143 -4 194 -9 243
-25z"/>
</g>
</svg>
